<?xml version="1.0" standalone="no"?>
<!DOCTYPE svg PUBLIC "-//W3C//DTD SVG 20010904//EN"
 "http://www.w3.org/TR/2001/REC-SVG-20010904/DTD/svg10.dtd">
<svg version="1.0" xmlns="http://www.w3.org/2000/svg"
 width="512.000000pt" height="512.000000pt" viewBox="0 0 512.000000 512.000000"
 preserveAspectRatio="xMidYMid meet">
<metadata>
Created by potrace 1.14, written by Peter Selinger 2001-2017
</metadata>
<g transform="translate(0.000000,512.000000) scale(0.100000,-0.100000)"
fill="#000000" stroke="none">
<path d="M1319 4227 c-37 -12 -83 -36 -104 -52 -20 -17 -43 -34 -50 -39 -9 -6
-28 2 -61 26 -107 76 -190 80 -99 4 27 -22 49 -51 56 -74 9 -25 14 -163 16
-439 l5 -402 -43 -46 c-36 -39 -40 -48 -28 -59 8 -7 49 -41 91 -75 l77 -62 91
72 c49 40 90 75 90 79 0 3 -16 21 -35 40 l-35 34 0 117 0 117 35 31 c64 56
196 112 295 126 69 10 262 -37 304 -72 l32 -28 -42 -65 c-60 -94 -81 -138
-108 -232 -36 -125 -50 -260 -43 -420 l7 -137 -33 7 c-17 4 -77 7 -132 7 -106
-1 -165 -15 -259 -62 -48 -24 -156 -122 -156 -142 0 -5 15 -19 33 -30 l34 -21
73 38 c66 34 80 37 154 37 67 0 91 -5 137 -26 77 -37 133 -89 169 -161 26 -52
30 -72 30 -139 l0 -78 -43 19 c-140 62 -314 37 -427 -60 l-35 -30 34 -29 c33
-29 34 -29 75 -14 104 38 216 9 298 -78 62 -66 88 -136 88 -235 0 -211 -138
-396 -512 -686 -57 -44 -104 -85 -105 -92 -2 -6 6 -21 16 -33 l19 -23 126 60
c380 181 613 244 946 257 376 14 660 -62 948 -254 l93 -62 269 232 c149 127
270 235 270 239 0 4 -13 22 -29 40 l-29 32 -93 -85 c-52 -47 -100 -89 -107
-93 -8 -5 -47 14 -100 47 -268 169 -433 223 -712 234 -119 4 -182 2 -269 -11
-96 -14 -280 -56 -356 -81 -11 -4 18 29 65 71 280 257 470 460 543 580 45 76
90 187 114 284 27 113 25 515 -5 780 -43 379 -41 504 13 610 25 49 107 130
158 157 50 25 165 62 218 69 27 4 51 10 54 14 2 4 -7 23 -20 42 l-24 36 -68
-5 c-181 -11 -339 -44 -428 -89 -72 -37 -86 -48 -152 -118 -116 -121 -186
-274 -199 -432 -7 -83 6 -291 32 -504 25 -212 29 -487 10 -618 -31 -210 -94
-376 -208 -547 -64 -97 -297 -334 -418 -426 l-85 -64 43 60 c227 313 321 501
374 748 32 148 31 433 -2 732 -32 294 -35 627 -6 725 25 84 69 173 114 230 19
25 117 124 216 221 l181 177 -34 36 c-19 20 -43 36 -52 36 -9 0 -50 -17 -90
-37 -62 -32 -104 -67 -260 -220 -103 -101 -191 -183 -196 -183 -6 0 -35 9 -67
20 -111 38 -288 72 -341 66 -48 -5 -218 -56 -254 -76 -10 -5 -42 -18 -71 -30
l-52 -21 4 173 c5 201 15 236 85 298 41 36 49 60 20 60 -7 0 -42 -11 -78 -23z"/>
</g>
</svg>
